<?xml version="1.0" encoding="utf-8"?>
<!-- Generator: Adobe Illustrator 24.2.3, SVG Export Plug-In . SVG Version: 6.00 Build 0)  -->
<svg version="1.1" id="图层_1" xmlns="http://www.w3.org/2000/svg" xmlns:xlink="http://www.w3.org/1999/xlink" x="0px" y="0px"
	 viewBox="0 0 200 200" style="enable-background:new 0 0 200 200;" xml:space="preserve">
<path d="M109,145.4V200H90.8v-54.6H109z M138.3,125.7l38.6,38.6l-12.9,12.9l-38.6-38.6L138.3,125.7z M61.4,125.7l12.9,12.9
	l-38.6,38.6l-12.9-12.9L61.4,125.7L61.4,125.7z M145.2,91h54.6v18.2h-54.6V91z M54.6,91v18.2H0V91H54.6z M35.7,23l38.6,38.6
	L61.4,74.5L22.8,35.9L35.7,23L35.7,23z M164,22.9l12.9,12.9l-38.6,38.6l-12.9-12.9C125.4,61.5,164,22.9,164,22.9z M108.8,0v54.6
	H90.6V0H108.8z"/>
</svg>
