<?xml version="1.0" encoding="utf-8"?>
<!-- Generator: Adobe Illustrator 24.2.3, SVG Export Plug-In . SVG Version: 6.00 Build 0)  -->
<svg version="1.1" id="图层_1" xmlns="http://www.w3.org/2000/svg" xmlns:xlink="http://www.w3.org/1999/xlink" x="0px" y="0px"
	 viewBox="0 0 200 200" style="enable-background:new 0 0 200 200;" xml:space="preserve">
<path d="M70.1,13.7v19.1c-28,11.7-47.8,39.4-47.8,71.7c0,42.9,34.7,77.6,77.6,77.6s77.6-34.7,77.6-77.6c0-32.3-19.7-60-47.8-71.7
	l0-19.1c38.1,12.5,65.7,48.4,65.7,90.8c0,52.8-42.8,95.5-95.5,95.5S4.5,157.2,4.5,104.5C4.5,62.1,32,26.2,70.1,13.7z M109,0v107.5
	H91V0C91,0,109,0,109,0z"/>
</svg>
