<?xml version="1.0" encoding="utf-8"?>
<!-- Generator: Adobe Illustrator 24.2.3, SVG Export Plug-In . SVG Version: 6.00 Build 0)  -->
<svg version="1.1" id="图层_1" xmlns="http://www.w3.org/2000/svg" xmlns:xlink="http://www.w3.org/1999/xlink" x="0px" y="0px"
	 viewBox="0 0 200 200" style="enable-background:new 0 0 200 200;" xml:space="preserve">
<path d="M67.1,26.3c-0.2-1.8-2.4-2.6-3.7-1.3L51.6,36.9L15.2,0.6c-0.8-0.8-2.2-0.8-3.1,0L0.6,12.1c-0.8,0.8-0.8,2.2,0,3.1L37,51.5
	L25,63.5c-1.3,1.3-0.5,3.5,1.3,3.7l43.5,5.1c1.4,0.2,2.6-1,2.4-2.4L67.1,26.3z M69.9,127.7l-43.6,5.1c-1.8,0.2-2.6,2.4-1.3,3.7
	L37,148.5L0.6,184.8c-0.8,0.8-0.8,2.2,0,3.1l11.5,11.5c0.8,0.8,2.2,0.8,3.1,0L51.6,163l11.9,11.9c1.3,1.3,3.5,0.5,3.7-1.3l5.1-43.5
	C72.4,128.7,71.3,127.6,69.9,127.7L69.9,127.7z M130.1,72.3l43.6-5.1c1.8-0.2,2.6-2.4,1.3-3.7L163,51.5l36.3-36.3
	c0.8-0.8,0.8-2.2,0-3.1L187.8,0.7c-0.8-0.8-2.2-0.8-3.1,0l-36.3,36.3l-11.9-11.9c-1.3-1.3-3.5-0.5-3.7,1.3l-5.1,43.5
	C127.6,71.3,128.7,72.4,130.1,72.3L130.1,72.3z M163,148.5l11.9-11.9c1.3-1.3,0.5-3.5-1.3-3.7l-43.5-5.1c-1.4-0.2-2.6,1-2.4,2.4
	l5.1,43.5c0.2,1.8,2.4,2.6,3.7,1.3l11.9-11.9l36.3,36.3c0.8,0.8,2.2,0.8,3.1,0l11.5-11.5c0.8-0.8,0.8-2.2,0-3.1L163,148.5z"/>
</svg>
