<?xml version="1.0" encoding="utf-8"?>
<!-- Generator: Adobe Illustrator 24.2.3, SVG Export Plug-In . SVG Version: 6.00 Build 0)  -->
<svg version="1.1" id="图层_1" xmlns="http://www.w3.org/2000/svg" xmlns:xlink="http://www.w3.org/1999/xlink" x="0px" y="0px"
	 viewBox="0 0 200 200" style="enable-background:new 0 0 200 200;" xml:space="preserve">
<path d="M36.9,21.7L49.4,9.2c1.3-1.3,0.5-3.6-1.3-3.9L2.5,0C1.1-0.2-0.2,1,0,2.5L5.4,48c0.2,1.9,2.5,2.7,3.9,1.3l12.4-12.4l38,38
	c0.9,0.9,2.3,0.9,3.2,0l12-12c0.9-0.9,0.9-2.3,0-3.2L36.9,21.7z M137.1,74.9c0.9,0.9,2.3,0.9,3.2,0l38-38l12.4,12.4
	c1.3,1.3,3.6,0.5,3.9-1.3L200,2.5c0.2-1.4-1.1-2.7-2.5-2.5l-45.5,5.4c-1.9,0.2-2.7,2.5-1.3,3.9l12.5,12.5l-38,37.9
	c-0.9,0.9-0.9,2.3,0,3.2C125.1,62.8,137.1,74.9,137.1,74.9z M194.6,151.9c-0.2-1.9-2.5-2.7-3.9-1.3L178.3,163l-38-38
	c-0.9-0.9-2.3-0.9-3.2,0l-12,12c-0.9,0.9-0.9,2.3,0,3.2l38,38l-12.5,12.5c-1.3,1.3-0.5,3.6,1.3,3.9l45.5,5.4
	c1.4,0.2,2.7-1.1,2.5-2.5L194.6,151.9z M62.9,125.1c-0.9-0.9-2.3-0.9-3.2,0l-38,38L9.3,150.6c-1.3-1.3-3.6-0.5-3.9,1.3L0,197.4
	c-0.2,1.4,1.1,2.7,2.5,2.5l45.5-5.4c1.9-0.2,2.7-2.5,1.3-3.9l-12.5-12.4l38-38c0.9-0.9,0.9-2.3,0-3.2
	C74.9,137.1,62.9,125.1,62.9,125.1z"/>
</svg>
