<?xml version="1.0" encoding="utf-8"?>
<!-- Generator: Adobe Illustrator 24.2.3, SVG Export Plug-In . SVG Version: 6.00 Build 0)  -->
<svg version="1.1" id="图层_1" xmlns="http://www.w3.org/2000/svg" xmlns:xlink="http://www.w3.org/1999/xlink" x="0px" y="0px"
	 viewBox="0 0 200 200" style="enable-background:new 0 0 200 200;" xml:space="preserve">
<style type="text/css">
	.st0{stroke:#000000;stroke-width:4;stroke-miterlimit:10;}
</style>
<g>
	<g>
		<path d="M181.2,174.7H18.8c-10.3,0-18.7-8.4-18.7-18.7V81c0-10.3,8.4-18.7,18.7-18.7h162.3c10.3,0,18.7,8.4,18.7,18.7V156
			C199.9,166.3,191.5,174.7,181.2,174.7L181.2,174.7z M21.8,77.8c-3.4,0-6.2,2.8-6.2,6.2V153c0,3.4,2.8,6.2,6.2,6.2h156.3
			c3.4,0,6.2-2.8,6.2-6.2V84c0-3.4-2.8-6.2-6.2-6.2H21.8z M21.8,77.8"/>
	</g>
	<path class="st0" d="M74.9,137.2h49.9v12.5H74.9V137.2z M137.3,137.2h12.5v12.5h-12.5V137.2z M162.3,137.2h12.5v12.5h-12.5V137.2z
		 M49.9,137.2h12.5v12.5H49.9V137.2z M24.9,137.2h12.5v12.5H24.9V137.2z M74.9,87.3h49.9v12.5H74.9V87.3z M137.3,87.3h12.5v12.5
		h-12.5V87.3z M162.3,87.3h12.5v12.5h-12.5V87.3z M49.9,87.3h12.5v12.5H49.9V87.3z M24.9,87.3h12.5v12.5H24.9V87.3z M156,112.3h18.7
		v12.5H156V112.3z M131.1,112.3h12.5v12.5h-12.5V112.3z M106.1,112.3h12.5v12.5h-12.5V112.3z M81.1,112.3h12.5v12.5H81.1V112.3z
		 M56.2,112.3h12.5v12.5H56.2V112.3z M24.9,112.3h18.7v12.5H24.9V112.3z M93.6,31.1h12.5v37.5H93.6V31.1z M106.1,31.1L106.1,31.1
		H93.6"/>
</g>
</svg>
