<?xml version="1.0" encoding="utf-8"?>
<!-- Generator: Adobe Illustrator 24.2.3, SVG Export Plug-In . SVG Version: 6.00 Build 0)  -->
<svg version="1.1" id="图层_1" xmlns="http://www.w3.org/2000/svg" xmlns:xlink="http://www.w3.org/1999/xlink" x="0px" y="0px"
	 viewBox="0 0 200 200" style="enable-background:new 0 0 200 200;" xml:space="preserve">
<path d="M121.7,89.3v83c0,11.5-14.3,17.2-22.3,8.7l-36.3-33.2l12-12l29.6,27.1v-56.7L121.7,89.3L121.7,89.3z M170.4,40.7
	c17,13.9,27.7,34.1,29.6,55.9v14.8c-2.5,27.9-19,51.8-42.5,64.6l-7.8-15c20.8-11.4,33.7-33.2,33.7-56.9c0-20-9.2-39-25.1-51.3
	L170.4,40.7L170.4,40.7z M145.2,25.9l12,12L29.4,165.7l-12-12L145.2,25.9z M147.9,63.2c11.7,9.7,18.4,24,18.4,39.1
	c0,17.8-9.2,34.3-24.5,43.5l-7.9-15.1c9.6-6.2,15.4-16.9,15.4-28.4c0-11.1-5.3-21-13.5-27.1L147.9,63.2z M121.7,27.8v5.7l-16.9,16.9
	V38L70.1,74.6L17,73.7v56.5h8L9.7,145.5c-5.9-2.8-9.6-8.8-9.6-15.3V73.7c0-9,7-16.4,15.9-16.9h1.1l45.8,0.8l36.6-38.5
	C107.5,10.6,121.7,16.2,121.7,27.8L121.7,27.8z"/>
</svg>
