<?xml version="1.0" encoding="utf-8"?>
<!-- Generator: Adobe Illustrator 24.2.3, SVG Export Plug-In . SVG Version: 6.00 Build 0)  -->
<svg version="1.1" id="图层_1" xmlns="http://www.w3.org/2000/svg" xmlns:xlink="http://www.w3.org/1999/xlink" x="0px" y="0px"
	 viewBox="0 0 200 200" style="enable-background:new 0 0 200 200;" xml:space="preserve">
<path d="M42,160h20c1.1,0,2-0.9,2-2V42c0-1.1-0.9-2-2-2H42c-1.1,0-2,0.9-2,2v116C40,159.1,40.9,160,42,160z M90,90h20
	c1.1,0,2-0.9,2-2V42c0-1.1-0.9-2-2-2H90c-1.1,0-2,0.9-2,2v46C88,89.1,88.9,90,90,90z M138,108h20c1.1,0,2-0.9,2-2V42
	c0-1.1-0.9-2-2-2h-20c-1.1,0-2,0.9-2,2v64C136,107.1,136.9,108,138,108z"/>
<path d="M192,0H8C3.6,0,0,3.6,0,8v184c0,4.4,3.6,8,8,8h184c4.4,0,8-3.6,8-8V8C200,3.6,196.4,0,192,0z M182,182H18V18h164V182z"/>
</svg>
