<?xml version="1.0" encoding="utf-8"?>
<!-- Generator: Adobe Illustrator 24.2.3, SVG Export Plug-In . SVG Version: 6.00 Build 0)  -->
<svg version="1.1" id="图层_1" xmlns="http://www.w3.org/2000/svg" xmlns:xlink="http://www.w3.org/1999/xlink" x="0px" y="0px"
	 viewBox="0 0 200 200" style="enable-background:new 0 0 200 200;" xml:space="preserve">
<path d="M84.2,0h32.3c10,0,18.1,7.9,18.1,17.7v5.1c6.2,2.5,12.2,5.8,17.6,9.6l4.3-2.4c8.7-4.9,19.8-2,24.8,6.5l16.2,27.2
	c4.8,8.1,2.3,18.4-5.7,23.6l-1,0.6l-4.3,2.4c0.7,6.7,0.7,13.5-0.3,20.3l3.1,1.7c8.3,4.7,11.5,14.9,7.2,23.2l-0.5,0.9L180.8,162
	c-4.8,8.1-15.3,11.2-23.9,7l-0.9-0.5l-4.2-2.4c-5.3,3.7-10.9,6.8-16.9,9.2v7c0,9.3-7.4,17.1-17,17.7h-1.2H84.4
	c-10,0-18.1-7.9-18.1-17.7v-8.5c-5-2.3-9.8-5-14.2-8.2l-7.7,4.3c-8.7,4.9-19.8,2-24.8-6.5L3.4,136.3c-4.8-8.1-2.3-18.4,5.7-23.6
	l1-0.6l7.9-4.4c-0.6-5.6-0.6-11.3-0.1-16.9l-8.7-4.9C0.8,81.2-2.4,71,1.9,62.7l0.5-0.9l15.1-25.5c4.8-8.1,15.3-11.2,23.9-7l0.9,0.5
	L50,34c5-3.8,10.3-7,16-9.6v-6.7C66,8.4,73.4,0.6,83,0H84.2L84.2,0z M84.2,17.7v18l-10.4,4.8c-4.5,2-8.7,4.6-12.6,7.5l-9.7,7.3
	l-17.8-10l-0.5-0.2l-15,25.5l18.9,10.6l-1.2,11.4c-0.5,4.4-0.4,8.9,0,13.3l1.2,11.4L19,127.5l16.2,27.2l18-10.1l9.5,6.8
	c3.5,2.5,7.3,4.7,11.2,6.5l10.4,4.8v19.7h32.3v-18.8l11.2-4.5c4.7-1.9,9.2-4.3,13.3-7.2l9.5-6.7l14.4,8.1l15.1-25.5l-13.7-7.7
	l1.7-11.8c0.8-5.3,0.8-10.6,0.3-15.9l-1.3-11.5l14.6-8.2l-16.2-27.2L151,53.7l-9.5-6.8c-4.3-3.1-9-5.6-13.9-7.6l-11.2-4.5V17.9
	L84.2,17.7L84.2,17.7z M120.4,68.5c17.4,9.8,23.3,31.4,13.3,48.3s-32.2,22.7-49.6,13c0,0,0,0-0.1,0C66.7,120,60.7,98.3,70.8,81.4
	C80.8,64.5,103,58.7,120.4,68.5C120.3,68.4,120.4,68.4,120.4,68.5z M86.5,90.2c-5,8.5-2,19.3,6.7,24.2c8.7,4.9,19.8,2,24.8-6.4l0,0
	c4.8-8.1,2.3-18.5-5.8-23.7l-0.9-0.5l-0.9-0.5C101.8,79.1,91.3,82.1,86.5,90.2L86.5,90.2z"/>
</svg>
