<?xml version="1.0" encoding="utf-8"?>
<!-- Generator: Adobe Illustrator 24.2.3, SVG Export Plug-In . SVG Version: 6.00 Build 0)  -->
<svg version="1.1" id="图层_1" xmlns="http://www.w3.org/2000/svg" xmlns:xlink="http://www.w3.org/1999/xlink" x="0px" y="0px"
	 viewBox="0 0 200 200" style="enable-background:new 0 0 200 200;" xml:space="preserve">
<path d="M121.7,27.7v144.6c0,11.6-14.3,17.2-22.3,8.7l-37.2-33.9H16.9c-9.4,0-16.9-7.6-16.9-16.9V73.7c0-9,7-16.4,15.9-16.9l1.1,0
	l45.8,0.8L99.5,19C107.5,10.6,121.7,16.2,121.7,27.7L121.7,27.7z M155.5,31C180,43.5,197.4,67.9,200,96.6v14.8
	c-2.5,27.9-19,51.8-42.5,64.6l-7.8-15c20.8-11.4,33.7-33.2,33.7-56.9c0-24.5-13.8-46.9-35.7-58L155.5,31z M104.8,38L70,74.6
	l-53.1-0.9v56.5h51.9l35.9,32.8V38z M141.3,58.5c15.5,9.1,25,25.8,25,43.8c0,17.8-9.3,34.3-24.5,43.5l-7.9-15.1
	c9.6-6.2,15.4-16.9,15.4-28.4c0-11.7-6-22.5-15.9-28.7L141.3,58.5z"/>
</svg>
